<svg xmlns="http://www.w3.org/2000/svg" xmlns:xlink="http://www.w3.org/1999/xlink" width="160" zoomAndPan="magnify" viewBox="0 0 120 30.000001" height="40" preserveAspectRatio="xMidYMid meet" version="1.0"><defs><g/><clipPath id="c837efb75a"><path d="M 67 10.050781 L 70 10.050781 L 70 16 L 67 16 Z M 67 10.050781 " clip-rule="nonzero"/></clipPath></defs><path fill="#febe5d" d="M 35.566406 9.140625 L 44.230469 9.140625 L 44.230469 18.347656 L 42.875 18.347656 L 42.875 10.59375 L 35.539062 10.59375 L 35.539062 9.140625 Z M 35.566406 9.140625 " fill-opacity="1" fill-rule="nonzero"/><path fill="#febe5d" d="M 45.46875 9.15625 L 51.285156 9.15625 L 51.285156 13.269531 L 46.867188 13.269531 L 46.867188 20.765625 L 40.222656 20.765625 L 40.222656 13.269531 L 35.550781 13.269531 L 35.550781 11.910156 L 41.542969 11.910156 L 41.542969 19.46875 L 45.488281 19.46875 L 45.488281 11.890625 L 49.90625 11.890625 L 49.90625 10.59375 L 45.488281 10.59375 L 45.488281 9.15625 Z M 45.46875 9.15625 " fill-opacity="1" fill-rule="nonzero"/><g fill="#384484" fill-opacity="1"><g transform="translate(53.290947, 15.767949)"><g><path d="M 1.875 -0.34375 L 2.453125 -0.25 L 2.453125 0 L 0.234375 0 L 0.234375 -0.25 L 0.8125 -0.34375 L 0.8125 -4.203125 L 0.234375 -4.296875 L 0.234375 -4.546875 L 2.453125 -4.546875 L 2.453125 -4.296875 L 1.875 -4.203125 Z M 1.875 -0.34375 "/></g></g></g><g fill="#384484" fill-opacity="1"><g transform="translate(55.97629, 15.767949)"><g><path d="M 1.46875 -2.90625 L 1.6875 -3.03125 C 2.007812 -3.1875 2.296875 -3.265625 2.546875 -3.265625 C 2.921875 -3.265625 3.171875 -3.128906 3.296875 -2.859375 C 3.753906 -3.128906 4.144531 -3.265625 4.46875 -3.265625 C 5.03125 -3.265625 5.3125 -2.953125 5.3125 -2.328125 L 5.3125 -0.3125 L 5.640625 -0.21875 L 5.640625 0 L 4.0625 0 L 4.0625 -0.21875 L 4.34375 -0.3125 L 4.34375 -2.203125 C 4.34375 -2.390625 4.304688 -2.535156 4.234375 -2.640625 C 4.160156 -2.742188 4.050781 -2.796875 3.90625 -2.796875 C 3.738281 -2.796875 3.554688 -2.75 3.359375 -2.65625 C 3.378906 -2.5625 3.390625 -2.453125 3.390625 -2.328125 L 3.390625 -0.3125 L 3.71875 -0.21875 L 3.71875 0 L 2.140625 0 L 2.140625 -0.21875 L 2.421875 -0.3125 L 2.421875 -2.203125 C 2.421875 -2.390625 2.382812 -2.535156 2.3125 -2.640625 C 2.238281 -2.742188 2.128906 -2.796875 1.984375 -2.796875 C 1.828125 -2.796875 1.65625 -2.753906 1.46875 -2.671875 L 1.46875 -0.3125 L 1.765625 -0.21875 L 1.765625 0 L 0.1875 0 L 0.1875 -0.21875 L 0.5 -0.3125 L 0.5 -2.875 L 0.1875 -2.953125 L 0.1875 -3.1875 L 1.421875 -3.1875 Z M 1.46875 -2.90625 "/></g></g></g><g fill="#384484" fill-opacity="1"><g transform="translate(61.724327, 15.767949)"><g><path d="M 1.46875 -2.90625 L 1.6875 -3.03125 C 2.007812 -3.1875 2.296875 -3.265625 2.546875 -3.265625 C 2.921875 -3.265625 3.171875 -3.128906 3.296875 -2.859375 C 3.753906 -3.128906 4.144531 -3.265625 4.46875 -3.265625 C 5.03125 -3.265625 5.3125 -2.953125 5.3125 -2.328125 L 5.3125 -0.3125 L 5.640625 -0.21875 L 5.640625 0 L 4.0625 0 L 4.0625 -0.21875 L 4.34375 -0.3125 L 4.34375 -2.203125 C 4.34375 -2.390625 4.304688 -2.535156 4.234375 -2.640625 C 4.160156 -2.742188 4.050781 -2.796875 3.90625 -2.796875 C 3.738281 -2.796875 3.554688 -2.75 3.359375 -2.65625 C 3.378906 -2.5625 3.390625 -2.453125 3.390625 -2.328125 L 3.390625 -0.3125 L 3.71875 -0.21875 L 3.71875 0 L 2.140625 0 L 2.140625 -0.21875 L 2.421875 -0.3125 L 2.421875 -2.203125 C 2.421875 -2.390625 2.382812 -2.535156 2.3125 -2.640625 C 2.238281 -2.742188 2.128906 -2.796875 1.984375 -2.796875 C 1.828125 -2.796875 1.65625 -2.753906 1.46875 -2.671875 L 1.46875 -0.3125 L 1.765625 -0.21875 L 1.765625 0 L 0.1875 0 L 0.1875 -0.21875 L 0.5 -0.3125 L 0.5 -2.875 L 0.1875 -2.953125 L 0.1875 -3.1875 L 1.421875 -3.1875 Z M 1.46875 -2.90625 "/></g></g></g><g clip-path="url(#c837efb75a)"><g fill="#384484" fill-opacity="1"><g transform="translate(67.472363, 15.767949)"><g><path d="M 1.46875 -0.3125 L 1.8125 -0.21875 L 1.8125 0 L 0.15625 0 L 0.15625 -0.21875 L 0.5 -0.3125 L 0.5 -2.875 L 0.171875 -2.953125 L 0.171875 -3.1875 L 1.46875 -3.1875 Z M 0.46875 -4.296875 C 0.46875 -4.441406 0.515625 -4.5625 0.609375 -4.65625 C 0.710938 -4.757812 0.835938 -4.8125 0.984375 -4.8125 C 1.128906 -4.8125 1.25 -4.757812 1.34375 -4.65625 C 1.445312 -4.5625 1.5 -4.441406 1.5 -4.296875 C 1.5 -4.148438 1.445312 -4.023438 1.34375 -3.921875 C 1.25 -3.828125 1.128906 -3.78125 0.984375 -3.78125 C 0.835938 -3.78125 0.710938 -3.828125 0.609375 -3.921875 C 0.515625 -4.023438 0.46875 -4.148438 0.46875 -4.296875 Z M 0.46875 -4.296875 "/></g></g></g></g><g fill="#384484" fill-opacity="1"><g transform="translate(69.389504, 15.767949)"><g><path d="M 0.859375 -1.171875 C 0.460938 -1.335938 0.265625 -1.671875 0.265625 -2.171875 C 0.265625 -2.523438 0.382812 -2.796875 0.625 -2.984375 C 0.875 -3.171875 1.226562 -3.265625 1.6875 -3.265625 C 1.78125 -3.265625 1.898438 -3.253906 2.046875 -3.234375 C 2.203125 -3.222656 2.316406 -3.207031 2.390625 -3.1875 L 3.15625 -3.5625 L 3.265625 -3.421875 L 2.890625 -2.859375 C 3.023438 -2.691406 3.09375 -2.460938 3.09375 -2.171875 C 3.09375 -1.804688 2.972656 -1.523438 2.734375 -1.328125 C 2.492188 -1.140625 2.140625 -1.046875 1.671875 -1.046875 C 1.492188 -1.046875 1.320312 -1.0625 1.15625 -1.09375 L 1.078125 -0.828125 C 1.078125 -0.765625 1.113281 -0.703125 1.1875 -0.640625 C 1.269531 -0.585938 1.367188 -0.5625 1.484375 -0.5625 L 2.234375 -0.5625 C 3.003906 -0.5625 3.390625 -0.265625 3.390625 0.328125 C 3.390625 0.578125 3.320312 0.789062 3.1875 0.96875 C 3.050781 1.144531 2.851562 1.28125 2.59375 1.375 C 2.332031 1.476562 2.007812 1.53125 1.625 1.53125 C 1.164062 1.53125 0.8125 1.460938 0.5625 1.328125 C 0.3125 1.203125 0.1875 1.023438 0.1875 0.796875 C 0.1875 0.691406 0.222656 0.59375 0.296875 0.5 C 0.378906 0.40625 0.539062 0.285156 0.78125 0.140625 C 0.644531 0.0859375 0.53125 0 0.4375 -0.125 C 0.34375 -0.25 0.296875 -0.382812 0.296875 -0.53125 Z M 2.640625 0.5625 C 2.640625 0.34375 2.5 0.234375 2.21875 0.234375 L 1.15625 0.234375 C 0.957031 0.378906 0.859375 0.546875 0.859375 0.734375 C 0.859375 0.878906 0.925781 0.988281 1.0625 1.0625 C 1.195312 1.132812 1.382812 1.171875 1.625 1.171875 C 1.957031 1.171875 2.207031 1.113281 2.375 1 C 2.550781 0.894531 2.640625 0.75 2.640625 0.5625 Z M 1.671875 -1.390625 C 1.835938 -1.390625 1.957031 -1.453125 2.03125 -1.578125 C 2.101562 -1.710938 2.140625 -1.910156 2.140625 -2.171875 C 2.140625 -2.429688 2.101562 -2.617188 2.03125 -2.734375 C 1.957031 -2.859375 1.835938 -2.921875 1.671875 -2.921875 C 1.515625 -2.921875 1.398438 -2.859375 1.328125 -2.734375 C 1.253906 -2.617188 1.21875 -2.429688 1.21875 -2.171875 C 1.21875 -1.910156 1.253906 -1.710938 1.328125 -1.578125 C 1.398438 -1.453125 1.515625 -1.390625 1.671875 -1.390625 Z M 1.671875 -1.390625 "/></g></g></g><g fill="#384484" fill-opacity="1"><g transform="translate(72.839674, 15.767949)"><g><path d="M 1.546875 -2.53125 C 1.796875 -2.800781 2.015625 -2.992188 2.203125 -3.109375 C 2.398438 -3.222656 2.578125 -3.28125 2.734375 -3.28125 L 2.921875 -3.28125 L 2.921875 -2.125 L 2.734375 -2.125 L 2.53125 -2.546875 C 2.382812 -2.546875 2.222656 -2.515625 2.046875 -2.453125 C 1.867188 -2.390625 1.710938 -2.316406 1.578125 -2.234375 L 1.578125 -0.3125 L 2.078125 -0.21875 L 2.078125 0 L 0.1875 0 L 0.1875 -0.21875 L 0.59375 -0.3125 L 0.59375 -2.875 L 0.1875 -2.953125 L 0.1875 -3.1875 L 1.515625 -3.1875 Z M 1.546875 -2.53125 "/></g></g></g><g fill="#384484" fill-opacity="1"><g transform="translate(75.902379, 15.767949)"><g><path d="M 1.84375 -3.25 C 2.632812 -3.25 3.03125 -2.957031 3.03125 -2.375 L 3.03125 -0.3125 L 3.34375 -0.21875 L 3.34375 0 L 2.1875 0 L 2.109375 -0.25 C 1.929688 -0.125 1.769531 -0.0390625 1.625 0 C 1.488281 0.0390625 1.347656 0.0625 1.203125 0.0625 C 0.546875 0.0625 0.21875 -0.25 0.21875 -0.875 C 0.21875 -1.113281 0.265625 -1.304688 0.359375 -1.453125 C 0.460938 -1.597656 0.601562 -1.703125 0.78125 -1.765625 C 0.96875 -1.835938 1.253906 -1.878906 1.640625 -1.890625 L 2.0625 -1.90625 L 2.0625 -2.359375 C 2.0625 -2.742188 1.90625 -2.9375 1.59375 -2.9375 C 1.40625 -2.9375 1.191406 -2.878906 0.953125 -2.765625 L 0.828125 -2.375 L 0.609375 -2.375 L 0.609375 -3.140625 C 0.941406 -3.191406 1.1875 -3.222656 1.34375 -3.234375 C 1.507812 -3.242188 1.675781 -3.25 1.84375 -3.25 Z M 2.0625 -1.59375 L 1.78125 -1.59375 C 1.5625 -1.582031 1.40625 -1.519531 1.3125 -1.40625 C 1.226562 -1.300781 1.1875 -1.132812 1.1875 -0.90625 C 1.1875 -0.707031 1.21875 -0.5625 1.28125 -0.46875 C 1.351562 -0.382812 1.445312 -0.34375 1.5625 -0.34375 C 1.707031 -0.34375 1.875 -0.378906 2.0625 -0.453125 Z M 2.0625 -1.59375 "/></g></g></g><g fill="#384484" fill-opacity="1"><g transform="translate(79.352549, 15.767949)"><g><path d="M 1.46875 -2.90625 L 1.6875 -3.03125 C 2.007812 -3.1875 2.296875 -3.265625 2.546875 -3.265625 C 3.128906 -3.265625 3.421875 -2.953125 3.421875 -2.328125 L 3.421875 -0.3125 L 3.734375 -0.21875 L 3.734375 0 L 2.15625 0 L 2.15625 -0.21875 L 2.4375 -0.3125 L 2.4375 -2.203125 C 2.4375 -2.390625 2.394531 -2.535156 2.3125 -2.640625 C 2.238281 -2.742188 2.128906 -2.796875 1.984375 -2.796875 C 1.816406 -2.796875 1.644531 -2.757812 1.46875 -2.6875 L 1.46875 -0.3125 L 1.765625 -0.21875 L 1.765625 0 L 0.1875 0 L 0.1875 -0.21875 L 0.5 -0.3125 L 0.5 -2.875 L 0.1875 -2.953125 L 0.1875 -3.1875 L 1.421875 -3.1875 Z M 1.46875 -2.90625 "/></g></g></g><g fill="#384484" fill-opacity="1"><g transform="translate(83.190194, 15.767949)"><g><path d="M 1.484375 0.0625 C 1.171875 0.0625 0.929688 -0.00390625 0.765625 -0.140625 C 0.609375 -0.273438 0.53125 -0.472656 0.53125 -0.734375 L 0.53125 -2.828125 L 0.109375 -2.828125 L 0.109375 -3.046875 L 0.59375 -3.1875 L 1 -3.90625 L 1.5 -3.90625 L 1.5 -3.1875 L 2.171875 -3.1875 L 2.171875 -2.828125 L 1.5 -2.828125 L 1.5 -0.796875 C 1.5 -0.648438 1.53125 -0.539062 1.59375 -0.46875 C 1.65625 -0.394531 1.734375 -0.359375 1.828125 -0.359375 C 1.953125 -0.359375 2.097656 -0.375 2.265625 -0.40625 L 2.265625 -0.125 C 2.203125 -0.0703125 2.085938 -0.03125 1.921875 0 C 1.753906 0.0390625 1.609375 0.0625 1.484375 0.0625 Z M 1.484375 0.0625 "/></g></g></g><g fill="#384484" fill-opacity="1"><g transform="translate(85.488767, 15.767949)"><g/></g></g><g fill="#384484" fill-opacity="1"><g transform="translate(53.290947, 20.102708)"><g><path d="M 0.515625 0 L 0.515625 -0.125 L 0.875 -0.171875 L 0.875 -2.09375 L 0.796875 -2.09375 C 0.535156 -2.09375 0.351562 -2.082031 0.25 -2.0625 L 0.203125 -1.640625 L 0.046875 -1.640625 L 0.046875 -2.265625 L 2.25 -2.265625 L 2.25 -1.640625 L 2.09375 -1.640625 L 2.046875 -2.0625 C 1.953125 -2.082031 1.769531 -2.09375 1.5 -2.09375 L 1.421875 -2.09375 L 1.421875 -0.171875 L 1.78125 -0.125 L 1.78125 0 Z M 0.515625 0 "/></g></g></g><g fill="#384484" fill-opacity="1"><g transform="translate(55.527064, 20.102708)"><g/></g></g><g fill="#384484" fill-opacity="1"><g transform="translate(56.396665, 20.102708)"><g><path d="M 0.0625 -0.125 L 0.34375 -0.171875 L 0.34375 -2.109375 L 0.0625 -2.140625 L 0.0625 -2.265625 L 1.984375 -2.265625 L 1.984375 -1.6875 L 1.828125 -1.6875 L 1.78125 -2.0625 C 1.65625 -2.070312 1.472656 -2.078125 1.234375 -2.078125 L 0.875 -2.078125 L 0.875 -1.25 L 1.46875 -1.25 L 1.53125 -1.5 L 1.671875 -1.5 L 1.671875 -0.796875 L 1.53125 -0.796875 L 1.46875 -1.0625 L 0.875 -1.0625 L 0.875 -0.1875 L 1.3125 -0.1875 C 1.59375 -0.1875 1.78125 -0.195312 1.875 -0.21875 L 1.96875 -0.640625 L 2.125 -0.640625 L 2.09375 0 L 0.0625 0 Z M 0.0625 -0.125 "/></g></g></g><g fill="#384484" fill-opacity="1"><g transform="translate(58.700543, 20.102708)"><g/></g></g><g fill="#384484" fill-opacity="1"><g transform="translate(59.570143, 20.102708)"><g><path d="M 1.375 0.03125 C 1 0.03125 0.703125 -0.0664062 0.484375 -0.265625 C 0.273438 -0.472656 0.171875 -0.753906 0.171875 -1.109375 C 0.171875 -1.492188 0.269531 -1.785156 0.46875 -1.984375 C 0.675781 -2.191406 0.976562 -2.296875 1.375 -2.296875 C 1.632812 -2.296875 1.90625 -2.257812 2.1875 -2.1875 L 2.203125 -1.640625 L 2.046875 -1.640625 L 2 -1.96875 C 1.851562 -2.070312 1.679688 -2.125 1.484375 -2.125 C 1.222656 -2.125 1.03125 -2.039062 0.90625 -1.875 C 0.789062 -1.707031 0.734375 -1.453125 0.734375 -1.109375 C 0.734375 -0.796875 0.796875 -0.554688 0.921875 -0.390625 C 1.046875 -0.222656 1.226562 -0.140625 1.46875 -0.140625 C 1.59375 -0.140625 1.703125 -0.15625 1.796875 -0.1875 C 1.890625 -0.226562 1.960938 -0.269531 2.015625 -0.3125 L 2.078125 -0.6875 L 2.234375 -0.6875 L 2.21875 -0.109375 C 2.113281 -0.0664062 1.976562 -0.03125 1.8125 0 C 1.65625 0.0195312 1.507812 0.03125 1.375 0.03125 Z M 1.375 0.03125 "/></g></g></g><g fill="#384484" fill-opacity="1"><g transform="translate(62.066011, 20.102708)"><g/></g></g><g fill="#384484" fill-opacity="1"><g transform="translate(62.927142, 20.102708)"><g><path d="M 0.0625 0 L 0.0625 -0.125 L 0.34375 -0.171875 L 0.34375 -2.109375 L 0.0625 -2.140625 L 0.0625 -2.265625 L 1.171875 -2.265625 L 1.171875 -2.140625 L 0.875 -2.109375 L 0.875 -1.265625 L 1.796875 -1.265625 L 1.796875 -2.109375 L 1.515625 -2.140625 L 1.515625 -2.265625 L 2.625 -2.265625 L 2.625 -2.140625 L 2.34375 -2.109375 L 2.34375 -0.171875 L 2.625 -0.125 L 2.625 0 L 1.515625 0 L 1.515625 -0.125 L 1.796875 -0.171875 L 1.796875 -1.078125 L 0.875 -1.078125 L 0.875 -0.171875 L 1.171875 -0.125 L 1.171875 0 Z M 0.0625 0 "/></g></g></g><g fill="#384484" fill-opacity="1"><g transform="translate(65.606407, 20.102708)"><g/></g></g><g fill="#384484" fill-opacity="1"><g transform="translate(66.467538, 20.102708)"><g><path d="M 0.9375 -0.171875 L 1.234375 -0.125 L 1.234375 0 L 0.109375 0 L 0.109375 -0.125 L 0.40625 -0.171875 L 0.40625 -2.109375 L 0.109375 -2.140625 L 0.109375 -2.265625 L 1.234375 -2.265625 L 1.234375 -2.140625 L 0.9375 -2.109375 Z M 0.9375 -0.171875 "/></g></g></g><g fill="#384484" fill-opacity="1"><g transform="translate(67.808015, 20.102708)"><g/></g></g><g fill="#384484" fill-opacity="1"><g transform="translate(68.669145, 20.102708)"><g><path d="M 0.0625 -0.125 L 0.34375 -0.171875 L 0.34375 -2.109375 L 0.0625 -2.140625 L 0.0625 -2.265625 L 1.984375 -2.265625 L 1.984375 -1.6875 L 1.828125 -1.6875 L 1.78125 -2.0625 C 1.65625 -2.070312 1.472656 -2.078125 1.234375 -2.078125 L 0.875 -2.078125 L 0.875 -1.25 L 1.46875 -1.25 L 1.53125 -1.5 L 1.671875 -1.5 L 1.671875 -0.796875 L 1.53125 -0.796875 L 1.46875 -1.0625 L 0.875 -1.0625 L 0.875 -0.1875 L 1.3125 -0.1875 C 1.59375 -0.1875 1.78125 -0.195312 1.875 -0.21875 L 1.96875 -0.640625 L 2.125 -0.640625 L 2.09375 0 L 0.0625 0 Z M 0.0625 -0.125 "/></g></g></g><g fill="#384484" fill-opacity="1"><g transform="translate(70.966615, 20.102708)"><g/></g></g><g fill="#384484" fill-opacity="1"><g transform="translate(71.827746, 20.102708)"><g><path d="M 0.1875 -0.703125 L 0.328125 -0.703125 L 0.40625 -0.328125 C 0.457031 -0.273438 0.53125 -0.226562 0.625 -0.1875 C 0.71875 -0.15625 0.816406 -0.140625 0.921875 -0.140625 C 1.242188 -0.140625 1.40625 -0.269531 1.40625 -0.53125 C 1.40625 -0.613281 1.375 -0.679688 1.3125 -0.734375 C 1.25 -0.796875 1.148438 -0.851562 1.015625 -0.90625 C 0.828125 -0.96875 0.691406 -1.019531 0.609375 -1.0625 C 0.523438 -1.101562 0.453125 -1.148438 0.390625 -1.203125 C 0.328125 -1.253906 0.28125 -1.316406 0.25 -1.390625 C 0.21875 -1.472656 0.203125 -1.570312 0.203125 -1.6875 C 0.203125 -1.882812 0.269531 -2.035156 0.40625 -2.140625 C 0.539062 -2.242188 0.738281 -2.296875 1 -2.296875 C 1.1875 -2.296875 1.394531 -2.269531 1.625 -2.21875 L 1.625 -1.6875 L 1.46875 -1.6875 L 1.390625 -2 C 1.273438 -2.082031 1.144531 -2.125 1 -2.125 C 0.851562 -2.125 0.742188 -2.097656 0.671875 -2.046875 C 0.597656 -1.992188 0.5625 -1.914062 0.5625 -1.8125 C 0.5625 -1.726562 0.59375 -1.660156 0.65625 -1.609375 C 0.71875 -1.554688 0.816406 -1.507812 0.953125 -1.46875 C 1.203125 -1.382812 1.375 -1.3125 1.46875 -1.25 C 1.570312 -1.1875 1.648438 -1.109375 1.703125 -1.015625 C 1.753906 -0.921875 1.78125 -0.8125 1.78125 -0.6875 C 1.78125 -0.207031 1.492188 0.03125 0.921875 0.03125 C 0.796875 0.03125 0.664062 0.0195312 0.53125 0 C 0.394531 -0.0195312 0.28125 -0.0507812 0.1875 -0.09375 Z M 0.1875 -0.703125 "/></g></g></g></svg>