<svg xmlns="http://www.w3.org/2000/svg" xmlns:xlink="http://www.w3.org/1999/xlink" width="467" zoomAndPan="magnify" viewBox="0 0 350.25 66" height="88" preserveAspectRatio="xMidYMid meet" version="1.0"><defs><g/><clipPath id="ae06385aeb"><path d="M 0 12.472656 L 45.304688 12.472656 L 45.304688 60.253906 L 0 60.253906 Z M 0 12.472656 " clip-rule="nonzero"/></clipPath><clipPath id="662872bb0b"><path d="M 0 0.472656 L 45.304688 0.472656 L 45.304688 48.253906 L 0 48.253906 Z M 0 0.472656 " clip-rule="nonzero"/></clipPath><clipPath id="8b2a739bc0"><rect x="0" width="46" y="0" height="49"/></clipPath><clipPath id="23bd756304"><path d="M 12.226562 34.953125 L 29.859375 34.953125 L 29.859375 52.585938 L 12.226562 52.585938 Z M 12.226562 34.953125 " clip-rule="nonzero"/></clipPath><clipPath id="2fa53fdd96"><path d="M 21.042969 34.953125 C 16.175781 34.953125 12.226562 38.898438 12.226562 43.769531 C 12.226562 48.636719 16.175781 52.585938 21.042969 52.585938 C 25.914062 52.585938 29.859375 48.636719 29.859375 43.769531 C 29.859375 38.898438 25.914062 34.953125 21.042969 34.953125 Z M 21.042969 34.953125 " clip-rule="nonzero"/></clipPath><clipPath id="c3c7fd42d9"><path d="M 0.226562 0.953125 L 17.859375 0.953125 L 17.859375 18.585938 L 0.226562 18.585938 Z M 0.226562 0.953125 " clip-rule="nonzero"/></clipPath><clipPath id="2f2c7cb834"><path d="M 9.042969 0.953125 C 4.175781 0.953125 0.226562 4.898438 0.226562 9.769531 C 0.226562 14.636719 4.175781 18.585938 9.042969 18.585938 C 13.914062 18.585938 17.859375 14.636719 17.859375 9.769531 C 17.859375 4.898438 13.914062 0.953125 9.042969 0.953125 Z M 9.042969 0.953125 " clip-rule="nonzero"/></clipPath><clipPath id="a102bf88ba"><rect x="0" width="18" y="0" height="19"/></clipPath><clipPath id="fb58cfade4"><path d="M 12.226562 20.589844 L 29.859375 20.589844 L 29.859375 38.226562 L 12.226562 38.226562 Z M 12.226562 20.589844 " clip-rule="nonzero"/></clipPath><clipPath id="60e292441f"><path d="M 21.042969 20.589844 C 16.175781 20.589844 12.226562 24.539062 12.226562 29.40625 C 12.226562 34.277344 16.175781 38.226562 21.042969 38.226562 C 25.914062 38.226562 29.859375 34.277344 29.859375 29.40625 C 29.859375 24.539062 25.914062 20.589844 21.042969 20.589844 Z M 21.042969 20.589844 " clip-rule="nonzero"/></clipPath><clipPath id="2edb35232b"><path d="M 0.226562 0.589844 L 17.859375 0.589844 L 17.859375 18.226562 L 0.226562 18.226562 Z M 0.226562 0.589844 " clip-rule="nonzero"/></clipPath><clipPath id="153eb751b3"><path d="M 9.042969 0.589844 C 4.175781 0.589844 0.226562 4.539062 0.226562 9.40625 C 0.226562 14.277344 4.175781 18.226562 9.042969 18.226562 C 13.914062 18.226562 17.859375 14.277344 17.859375 9.40625 C 17.859375 4.539062 13.914062 0.589844 9.042969 0.589844 Z M 9.042969 0.589844 " clip-rule="nonzero"/></clipPath><clipPath id="99ad78e039"><rect x="0" width="18" y="0" height="19"/></clipPath><clipPath id="f63945c1f8"><path d="M 22.042969 20.589844 L 39.675781 20.589844 L 39.675781 38.226562 L 22.042969 38.226562 Z M 22.042969 20.589844 " clip-rule="nonzero"/></clipPath><clipPath id="2b0b51e5d7"><path d="M 30.859375 20.589844 C 25.988281 20.589844 22.042969 24.539062 22.042969 29.40625 C 22.042969 34.277344 25.988281 38.226562 30.859375 38.226562 C 35.730469 38.226562 39.675781 34.277344 39.675781 29.40625 C 39.675781 24.539062 35.730469 20.589844 30.859375 20.589844 Z M 30.859375 20.589844 " clip-rule="nonzero"/></clipPath><clipPath id="a8baf0b661"><path d="M 0.0429688 0.589844 L 17.675781 0.589844 L 17.675781 18.226562 L 0.0429688 18.226562 Z M 0.0429688 0.589844 " clip-rule="nonzero"/></clipPath><clipPath id="4bf388622c"><path d="M 8.859375 0.589844 C 3.988281 0.589844 0.0429688 4.539062 0.0429688 9.40625 C 0.0429688 14.277344 3.988281 18.226562 8.859375 18.226562 C 13.730469 18.226562 17.675781 14.277344 17.675781 9.40625 C 17.675781 4.539062 13.730469 0.589844 8.859375 0.589844 Z M 8.859375 0.589844 " clip-rule="nonzero"/></clipPath><clipPath id="b69feb956d"><rect x="0" width="18" y="0" height="19"/></clipPath><clipPath id="5733afbbb6"><rect x="0" width="243" y="0" height="47"/></clipPath></defs><g clip-path="url(#ae06385aeb)"><g transform="matrix(1, 0, 0, 1, 0, 12)"><g clip-path="url(#8b2a739bc0)"><g clip-path="url(#662872bb0b)"><path fill="#f7f4eb" d="M 0 0.472656 L 45.304688 0.472656 L 45.304688 48.253906 L 0 48.253906 Z M 0 0.472656 " fill-opacity="1" fill-rule="nonzero"/></g></g></g></g><g clip-path="url(#23bd756304)"><g clip-path="url(#2fa53fdd96)"><g transform="matrix(1, 0, 0, 1, 12, 34)"><g clip-path="url(#a102bf88ba)"><g clip-path="url(#c3c7fd42d9)"><g clip-path="url(#2f2c7cb834)"><path fill="#000000" d="M 0.226562 0.953125 L 17.859375 0.953125 L 17.859375 18.585938 L 0.226562 18.585938 Z M 0.226562 0.953125 " fill-opacity="1" fill-rule="nonzero"/></g></g></g></g></g></g><g clip-path="url(#fb58cfade4)"><g clip-path="url(#60e292441f)"><g transform="matrix(1, 0, 0, 1, 12, 20)"><g clip-path="url(#99ad78e039)"><g clip-path="url(#2edb35232b)"><g clip-path="url(#153eb751b3)"><path fill="#000000" d="M 0.226562 0.589844 L 17.859375 0.589844 L 17.859375 18.226562 L 0.226562 18.226562 Z M 0.226562 0.589844 " fill-opacity="1" fill-rule="nonzero"/></g></g></g></g></g></g><g clip-path="url(#f63945c1f8)"><g clip-path="url(#2b0b51e5d7)"><g transform="matrix(1, 0, 0, 1, 22, 20)"><g clip-path="url(#b69feb956d)"><g clip-path="url(#a8baf0b661)"><g clip-path="url(#4bf388622c)"><path fill="#000000" d="M 0.0429688 0.589844 L 17.675781 0.589844 L 17.675781 18.226562 L 0.0429688 18.226562 Z M 0.0429688 0.589844 " fill-opacity="1" fill-rule="nonzero"/></g></g></g></g></g></g><g transform="matrix(1, 0, 0, 1, 57, 9)"><g clip-path="url(#5733afbbb6)"><g fill="#1b1b1b" fill-opacity="1"><g transform="translate(0.979301, 36.5388)"><g><path d="M 14 -1.1875 C 13.5 -0.738281 12.882812 -0.394531 12.15625 -0.15625 C 11.425781 0.0703125 10.660156 0.1875 9.859375 0.1875 C 8.023438 0.1875 6.613281 -0.304688 5.625 -1.296875 C 4.632812 -2.296875 4.140625 -3.703125 4.140625 -5.515625 L 4.140625 -17.34375 L 0.640625 -17.34375 L 0.640625 -19.578125 L 4.140625 -19.578125 L 4.140625 -23.875 L 6.78125 -23.875 L 6.78125 -19.578125 L 12.734375 -19.578125 L 12.734375 -17.34375 L 6.78125 -17.34375 L 6.78125 -5.65625 C 6.78125 -4.488281 7.070312 -3.597656 7.65625 -2.984375 C 8.238281 -2.378906 9.078125 -2.078125 10.171875 -2.078125 C 10.710938 -2.078125 11.238281 -2.164062 11.75 -2.34375 C 12.257812 -2.519531 12.695312 -2.769531 13.0625 -3.09375 Z M 14 -1.1875 "/></g></g></g><g fill="#1b1b1b" fill-opacity="1"><g transform="translate(16.097532, 36.5388)"><g><path d="M 13.671875 -19.734375 C 16.117188 -19.734375 18.066406 -19.019531 19.515625 -17.59375 C 20.972656 -16.164062 21.703125 -14.085938 21.703125 -11.359375 L 21.703125 0 L 19.0625 0 L 19.0625 -11.09375 C 19.0625 -13.132812 18.550781 -14.6875 17.53125 -15.75 C 16.519531 -16.8125 15.070312 -17.34375 13.1875 -17.34375 C 11.070312 -17.34375 9.398438 -16.71875 8.171875 -15.46875 C 6.941406 -14.21875 6.328125 -12.488281 6.328125 -10.28125 L 6.328125 0 L 3.6875 0 L 3.6875 -27.625 L 6.328125 -27.625 L 6.328125 -16.15625 C 7.046875 -17.300781 8.035156 -18.179688 9.296875 -18.796875 C 10.566406 -19.421875 12.023438 -19.734375 13.671875 -19.734375 Z M 13.671875 -19.734375 "/></g></g></g><g fill="#1b1b1b" fill-opacity="1"><g transform="translate(41.381489, 36.5388)"><g><path d="M 20.734375 -8.96875 L 4.359375 -8.96875 C 4.503906 -6.9375 5.285156 -5.289062 6.703125 -4.03125 C 8.117188 -2.78125 9.90625 -2.15625 12.0625 -2.15625 C 13.28125 -2.15625 14.394531 -2.375 15.40625 -2.8125 C 16.425781 -3.25 17.3125 -3.890625 18.0625 -4.734375 L 19.546875 -3.015625 C 18.679688 -1.972656 17.59375 -1.175781 16.28125 -0.625 C 14.976562 -0.0820312 13.546875 0.1875 11.984375 0.1875 C 9.972656 0.1875 8.191406 -0.238281 6.640625 -1.09375 C 5.085938 -1.957031 3.878906 -3.144531 3.015625 -4.65625 C 2.148438 -6.164062 1.71875 -7.878906 1.71875 -9.796875 C 1.71875 -11.703125 2.128906 -13.410156 2.953125 -14.921875 C 3.785156 -16.441406 4.925781 -17.625 6.375 -18.46875 C 7.832031 -19.3125 9.46875 -19.734375 11.28125 -19.734375 C 13.09375 -19.734375 14.71875 -19.3125 16.15625 -18.46875 C 17.59375 -17.625 18.722656 -16.453125 19.546875 -14.953125 C 20.367188 -13.453125 20.78125 -11.734375 20.78125 -9.796875 Z M 11.28125 -17.46875 C 9.394531 -17.46875 7.8125 -16.863281 6.53125 -15.65625 C 5.25 -14.445312 4.523438 -12.878906 4.359375 -10.953125 L 18.25 -10.953125 C 18.070312 -12.878906 17.34375 -14.445312 16.0625 -15.65625 C 14.789062 -16.863281 13.195312 -17.46875 11.28125 -17.46875 Z M 11.28125 -17.46875 "/></g></g></g><g fill="#1b1b1b" fill-opacity="1"><g transform="translate(63.872651, 36.5388)"><g><path d="M 21.8125 -19.578125 L 21.8125 -2.390625 C 21.8125 0.941406 21 3.40625 19.375 5 C 17.75 6.601562 15.300781 7.40625 12.03125 7.40625 C 10.21875 7.40625 8.5 7.140625 6.875 6.609375 C 5.25 6.078125 3.925781 5.335938 2.90625 4.390625 L 4.25 2.390625 C 5.1875 3.234375 6.332031 3.890625 7.6875 4.359375 C 9.039062 4.828125 10.460938 5.0625 11.953125 5.0625 C 14.429688 5.0625 16.253906 4.484375 17.421875 3.328125 C 18.585938 2.171875 19.171875 0.378906 19.171875 -2.046875 L 19.171875 -4.546875 C 18.359375 -3.304688 17.285156 -2.363281 15.953125 -1.71875 C 14.628906 -1.070312 13.160156 -0.75 11.546875 -0.75 C 9.703125 -0.75 8.03125 -1.148438 6.53125 -1.953125 C 5.03125 -2.765625 3.851562 -3.894531 3 -5.34375 C 2.144531 -6.789062 1.71875 -8.4375 1.71875 -10.28125 C 1.71875 -12.113281 2.144531 -13.75 3 -15.1875 C 3.851562 -16.625 5.023438 -17.738281 6.515625 -18.53125 C 8.003906 -19.332031 9.679688 -19.734375 11.546875 -19.734375 C 13.203125 -19.734375 14.703125 -19.394531 16.046875 -18.71875 C 17.390625 -18.050781 18.46875 -17.085938 19.28125 -15.828125 L 19.28125 -19.578125 Z M 11.796875 -3.09375 C 13.210938 -3.09375 14.488281 -3.394531 15.625 -4 C 16.769531 -4.613281 17.660156 -5.460938 18.296875 -6.546875 C 18.929688 -7.640625 19.25 -8.882812 19.25 -10.28125 C 19.25 -11.664062 18.929688 -12.894531 18.296875 -13.96875 C 17.660156 -15.050781 16.78125 -15.894531 15.65625 -16.5 C 14.53125 -17.113281 13.242188 -17.421875 11.796875 -17.421875 C 10.390625 -17.421875 9.117188 -17.125 7.984375 -16.53125 C 6.859375 -15.9375 5.976562 -15.09375 5.34375 -14 C 4.707031 -12.90625 4.390625 -11.664062 4.390625 -10.28125 C 4.390625 -8.882812 4.707031 -7.640625 5.34375 -6.546875 C 5.976562 -5.460938 6.859375 -4.613281 7.984375 -4 C 9.117188 -3.394531 10.390625 -3.09375 11.796875 -3.09375 Z M 11.796875 -3.09375 "/></g></g></g><g fill="#1b1b1b" fill-opacity="1"><g transform="translate(89.41726, 36.5388)"><g><path d="M 3.6875 -27.625 L 6.328125 -27.625 L 6.328125 0 L 3.6875 0 Z M 3.6875 -27.625 "/></g></g></g><g fill="#1b1b1b" fill-opacity="1"><g transform="translate(99.434026, 36.5388)"><g><path d="M 11.6875 0.1875 C 9.800781 0.1875 8.097656 -0.238281 6.578125 -1.09375 C 5.066406 -1.957031 3.878906 -3.144531 3.015625 -4.65625 C 2.148438 -6.164062 1.71875 -7.878906 1.71875 -9.796875 C 1.71875 -11.703125 2.148438 -13.410156 3.015625 -14.921875 C 3.878906 -16.441406 5.066406 -17.625 6.578125 -18.46875 C 8.097656 -19.3125 9.800781 -19.734375 11.6875 -19.734375 C 13.570312 -19.734375 15.269531 -19.3125 16.78125 -18.46875 C 18.300781 -17.625 19.488281 -16.441406 20.34375 -14.921875 C 21.207031 -13.410156 21.640625 -11.703125 21.640625 -9.796875 C 21.640625 -7.878906 21.207031 -6.164062 20.34375 -4.65625 C 19.488281 -3.144531 18.300781 -1.957031 16.78125 -1.09375 C 15.269531 -0.238281 13.570312 0.1875 11.6875 0.1875 Z M 11.6875 -2.15625 C 13.082031 -2.15625 14.332031 -2.472656 15.4375 -3.109375 C 16.539062 -3.742188 17.398438 -4.644531 18.015625 -5.8125 C 18.640625 -6.976562 18.953125 -8.304688 18.953125 -9.796875 C 18.953125 -11.285156 18.640625 -12.613281 18.015625 -13.78125 C 17.398438 -14.945312 16.539062 -15.84375 15.4375 -16.46875 C 14.332031 -17.101562 13.082031 -17.421875 11.6875 -17.421875 C 10.300781 -17.421875 9.054688 -17.101562 7.953125 -16.46875 C 6.847656 -15.84375 5.976562 -14.945312 5.34375 -13.78125 C 4.707031 -12.613281 4.390625 -11.285156 4.390625 -9.796875 C 4.390625 -8.304688 4.707031 -6.976562 5.34375 -5.8125 C 5.976562 -4.644531 6.847656 -3.742188 7.953125 -3.109375 C 9.054688 -2.472656 10.300781 -2.15625 11.6875 -2.15625 Z M 11.6875 -2.15625 "/></g></g></g><g fill="#1b1b1b" fill-opacity="1"><g transform="translate(122.781642, 36.5388)"><g><path d="M 13.78125 -19.734375 C 15.613281 -19.734375 17.273438 -19.316406 18.765625 -18.484375 C 20.253906 -17.648438 21.421875 -16.476562 22.265625 -14.96875 C 23.109375 -13.457031 23.53125 -11.734375 23.53125 -9.796875 C 23.53125 -7.859375 23.109375 -6.128906 22.265625 -4.609375 C 21.421875 -3.097656 20.253906 -1.921875 18.765625 -1.078125 C 17.273438 -0.234375 15.613281 0.1875 13.78125 0.1875 C 12.132812 0.1875 10.660156 -0.160156 9.359375 -0.859375 C 8.054688 -1.554688 7.007812 -2.5625 6.21875 -3.875 L 6.21875 0 L 3.6875 0 L 3.6875 -27.625 L 6.328125 -27.625 L 6.328125 -15.859375 C 7.148438 -17.128906 8.195312 -18.09375 9.46875 -18.75 C 10.75 -19.40625 12.1875 -19.734375 13.78125 -19.734375 Z M 13.59375 -2.15625 C 14.957031 -2.15625 16.195312 -2.472656 17.3125 -3.109375 C 18.425781 -3.742188 19.300781 -4.644531 19.9375 -5.8125 C 20.570312 -6.976562 20.890625 -8.304688 20.890625 -9.796875 C 20.890625 -11.285156 20.570312 -12.613281 19.9375 -13.78125 C 19.300781 -14.945312 18.425781 -15.84375 17.3125 -16.46875 C 16.195312 -17.101562 14.957031 -17.421875 13.59375 -17.421875 C 12.195312 -17.421875 10.945312 -17.101562 9.84375 -16.46875 C 8.738281 -15.84375 7.867188 -14.945312 7.234375 -13.78125 C 6.609375 -12.613281 6.296875 -11.285156 6.296875 -9.796875 C 6.296875 -8.304688 6.609375 -6.976562 7.234375 -5.8125 C 7.867188 -4.644531 8.738281 -3.742188 9.84375 -3.109375 C 10.945312 -2.472656 12.195312 -2.15625 13.59375 -2.15625 Z M 13.59375 -2.15625 "/></g></g></g><g fill="#1b1b1b" fill-opacity="1"><g transform="translate(147.916638, 36.5388)"><g><path d="M 10.53125 -19.734375 C 13.09375 -19.734375 15.054688 -19.09375 16.421875 -17.8125 C 17.785156 -16.539062 18.46875 -14.648438 18.46875 -12.140625 L 18.46875 0 L 15.9375 0 L 15.9375 -3.046875 C 15.34375 -2.035156 14.46875 -1.242188 13.3125 -0.671875 C 12.15625 -0.0976562 10.785156 0.1875 9.203125 0.1875 C 7.015625 0.1875 5.273438 -0.332031 3.984375 -1.375 C 2.691406 -2.414062 2.046875 -3.796875 2.046875 -5.515625 C 2.046875 -7.171875 2.644531 -8.507812 3.84375 -9.53125 C 5.050781 -10.550781 6.972656 -11.0625 9.609375 -11.0625 L 15.828125 -11.0625 L 15.828125 -12.25 C 15.828125 -13.9375 15.351562 -15.21875 14.40625 -16.09375 C 13.46875 -16.976562 12.09375 -17.421875 10.28125 -17.421875 C 9.039062 -17.421875 7.847656 -17.21875 6.703125 -16.8125 C 5.554688 -16.40625 4.578125 -15.835938 3.765625 -15.109375 L 2.5625 -17.09375 C 3.5625 -17.9375 4.753906 -18.585938 6.140625 -19.046875 C 7.535156 -19.503906 9 -19.734375 10.53125 -19.734375 Z M 9.609375 -1.90625 C 11.097656 -1.90625 12.375 -2.242188 13.4375 -2.921875 C 14.507812 -3.609375 15.304688 -4.597656 15.828125 -5.890625 L 15.828125 -9.078125 L 9.6875 -9.078125 C 6.332031 -9.078125 4.65625 -7.910156 4.65625 -5.578125 C 4.65625 -4.441406 5.085938 -3.546875 5.953125 -2.890625 C 6.828125 -2.234375 8.046875 -1.90625 9.609375 -1.90625 Z M 9.609375 -1.90625 "/></g></g></g><g fill="#1b1b1b" fill-opacity="1"><g transform="translate(169.886485, 36.5388)"><g><path d="M 3.6875 -27.625 L 6.328125 -27.625 L 6.328125 0 L 3.6875 0 Z M 3.6875 -27.625 "/></g></g></g><g fill="#1b1b1b" fill-opacity="1"><g transform="translate(179.903251, 36.5388)"><g><path d="M 28.109375 -19.734375 C 30.566406 -19.734375 32.492188 -19.023438 33.890625 -17.609375 C 35.296875 -16.191406 36 -14.109375 36 -11.359375 L 36 0 L 33.359375 0 L 33.359375 -11.09375 C 33.359375 -13.132812 32.867188 -14.6875 31.890625 -15.75 C 30.910156 -16.8125 29.523438 -17.34375 27.734375 -17.34375 C 25.703125 -17.34375 24.101562 -16.71875 22.9375 -15.46875 C 21.769531 -14.21875 21.1875 -12.488281 21.1875 -10.28125 L 21.1875 0 L 18.546875 0 L 18.546875 -11.09375 C 18.546875 -13.132812 18.050781 -14.6875 17.0625 -15.75 C 16.082031 -16.8125 14.691406 -17.34375 12.890625 -17.34375 C 10.867188 -17.34375 9.269531 -16.71875 8.09375 -15.46875 C 6.914062 -14.21875 6.328125 -12.488281 6.328125 -10.28125 L 6.328125 0 L 3.6875 0 L 3.6875 -19.578125 L 6.21875 -19.578125 L 6.21875 -16.015625 C 6.914062 -17.203125 7.882812 -18.117188 9.125 -18.765625 C 10.363281 -19.410156 11.789062 -19.734375 13.40625 -19.734375 C 15.039062 -19.734375 16.457031 -19.382812 17.65625 -18.6875 C 18.863281 -18 19.765625 -16.96875 20.359375 -15.59375 C 21.085938 -16.882812 22.125 -17.894531 23.46875 -18.625 C 24.820312 -19.363281 26.367188 -19.734375 28.109375 -19.734375 Z M 28.109375 -19.734375 "/></g></g></g><g fill="#1b1b1b" fill-opacity="1"><g transform="translate(219.411743, 36.5388)"><g><path d="M 10.53125 -19.734375 C 13.09375 -19.734375 15.054688 -19.09375 16.421875 -17.8125 C 17.785156 -16.539062 18.46875 -14.648438 18.46875 -12.140625 L 18.46875 0 L 15.9375 0 L 15.9375 -3.046875 C 15.34375 -2.035156 14.46875 -1.242188 13.3125 -0.671875 C 12.15625 -0.0976562 10.785156 0.1875 9.203125 0.1875 C 7.015625 0.1875 5.273438 -0.332031 3.984375 -1.375 C 2.691406 -2.414062 2.046875 -3.796875 2.046875 -5.515625 C 2.046875 -7.171875 2.644531 -8.507812 3.84375 -9.53125 C 5.050781 -10.550781 6.972656 -11.0625 9.609375 -11.0625 L 15.828125 -11.0625 L 15.828125 -12.25 C 15.828125 -13.9375 15.351562 -15.21875 14.40625 -16.09375 C 13.46875 -16.976562 12.09375 -17.421875 10.28125 -17.421875 C 9.039062 -17.421875 7.847656 -17.21875 6.703125 -16.8125 C 5.554688 -16.40625 4.578125 -15.835938 3.765625 -15.109375 L 2.5625 -17.09375 C 3.5625 -17.9375 4.753906 -18.585938 6.140625 -19.046875 C 7.535156 -19.503906 9 -19.734375 10.53125 -19.734375 Z M 9.609375 -1.90625 C 11.097656 -1.90625 12.375 -2.242188 13.4375 -2.921875 C 14.507812 -3.609375 15.304688 -4.597656 15.828125 -5.890625 L 15.828125 -9.078125 L 9.6875 -9.078125 C 6.332031 -9.078125 4.65625 -7.910156 4.65625 -5.578125 C 4.65625 -4.441406 5.085938 -3.546875 5.953125 -2.890625 C 6.828125 -2.234375 8.046875 -1.90625 9.609375 -1.90625 Z M 9.609375 -1.90625 "/></g></g></g></g></g></svg>